<?xml version="1.0" standalone="no"?><!DOCTYPE svg PUBLIC "-//W3C//DTD SVG 1.1//EN" "http://www.w3.org/Graphics/SVG/1.1/DTD/svg11.dtd"><svg t="1583460584943" class="icon" viewBox="0 0 1024 1024" version="1.1" xmlns="http://www.w3.org/2000/svg" p-id="1604" xmlns:xlink="http://www.w3.org/1999/xlink" width="128" height="128"><defs><style type="text/css"></style></defs><path d="M974.769231 822.153846c0-118.153846-68.923077-221.538462-167.384616-265.846154 49.230769-34.461538 78.769231-93.538462 78.769231-157.538461 0-88.615385-59.076923-167.384615-132.923077-187.076923h-4.923077c-14.769231 0-29.538462 14.769231-29.538461 34.461538 0 14.769231 9.846154 29.538462 24.615384 29.538462h4.923077c44.307692 24.615385 78.769231 68.923077 78.769231 123.076923 0 59.076923-39.384615 108.307692-93.538461 123.076923-19.692308 0-29.538462 14.769231-29.538462 34.461538 0 19.692308 14.769231 34.461538 34.461538 34.461539 108.307692 9.846154 182.153846 108.307692 182.153847 231.384615 0 19.692308 14.769231 34.461538 29.538461 34.461539 9.846154 0 24.615385-14.769231 24.615385-34.461539m-354.461539-260.923077c54.153846-39.384615 93.538462-108.307692 93.538462-187.076923 0-123.076923-93.538462-226.461538-206.769231-226.461538-118.153846 0-211.692308 103.384615-211.692308 226.461538 0 78.769231 34.461538 147.692308 93.538462 187.076923-113.230769 49.230769-196.923077 172.307692-196.923077 315.076923v24.615385c0 19.692308 14.769231 29.538462 29.538462 29.538461h566.153846c14.769231 0 29.538462-14.769231 29.538461-29.538461v-24.615385c0-137.846154-78.769231-260.923077-196.923077-315.076923" fill="#999999" p-id="1605"></path><path d="M39.384615 812.307692c0-118.153846 68.923077-221.538462 167.384616-260.923077-49.230769-34.461538-78.769231-93.538462-78.769231-157.538461 0-88.615385 59.076923-162.461538 137.846154-182.153846h4.923077c14.769231 0 29.538462 14.769231 29.538461 34.461538 0 14.769231-9.846154 29.538462-24.615384 29.538462h-4.923077C221.538462 290.461538 187.076923 339.692308 187.076923 388.923077c0 59.076923 39.384615 108.307692 93.538462 118.153846 19.692308 0 29.538462 14.769231 29.538461 34.461539 0 19.692308-14.769231 34.461538-34.461538 34.461538-108.307692 9.846154-182.153846 108.307692-182.153846 226.461538 0 19.692308-14.769231 29.538462-29.538462 29.538462-9.846154 9.846154-24.615385-4.923077-24.615385-19.692308" fill="#999999" p-id="1606"></path></svg>